<?xml version="1.0" standalone="no"?><svg xmlns="http://www.w3.org/2000/svg" viewBox="0 0 1440 320"><path fill="#000000" fill-opacity="1" d="M0,256L0,192L102.9,192L102.9,256L205.7,256L205.7,128L308.6,128L308.6,96L411.4,96L411.4,64L514.3,64L514.3,224L617.1,224L617.1,128L720,128L720,64L822.9,64L822.9,224L925.7,224L925.7,64L1028.6,64L1028.6,32L1131.4,32L1131.4,256L1234.3,256L1234.3,96L1337.1,96L1337.1,288L1440,288L1440,320L1337.1,320L1337.1,320L1234.3,320L1234.3,320L1131.4,320L1131.4,320L1028.6,320L1028.6,320L925.7,320L925.7,320L822.9,320L822.9,320L720,320L720,320L617.1,320L617.1,320L514.3,320L514.3,320L411.4,320L411.4,320L308.6,320L308.6,320L205.7,320L205.7,320L102.9,320L102.9,320L0,320L0,320Z"></path></svg>